@startuml
[*] --> HumanDriving : Power On

state HumanDriving {
}

state Autonomous {
state Navigating
state Parking
[*] --> Navigating
Navigating --> Parking : Park Request
Parking --> Navigating : Parking Complete
}

HumanDriving --> Autonomous : front_distance > 10
Autonomous --> HumanDriving : Human Steering Cmd / Brake Pressed / [*]

HumanDriving --> [*] : Power Off
@enduml