@startuml

[*] --> DoorShut

DoorShut --> DoorShut : Cancel
DoorShut --> DoorOpen : Door Opened

DoorOpen --> DoorShut : Door Closed
DoorOpen --> DoorOpenWithItem : Place Item

DoorOpenWithItem --> DoorOpen : Remove Item
DoorOpenWithItem --> DoorShutWithItem : Door Closed [time = 0]
DoorOpenWithItem --> ReadytoCook : Enter Cooking Time

DoorShutWithItem --> DoorOpenWithItem : Door Opened
DoorShutWithItem --> ReadytoCook : Enter Cooking Time

ReadytoCook --> DoorShutWithItem : Cancel
ReadytoCook --> DoorOpenWithItem : Door Opened
ReadytoCook --> Cooking : Start

Cooking --> DoorOpenWithItem : Door Opened
Cooking --> DoorShutWithItem : Timer Expired
Cooking --> ReadytoCook : Cancel

@enduml
