@startuml
state "Tracking Tasks and Milestones" as Tracking_Tasks_and_Milestones_a377e3
state "Identifying Dependencies and Issues" as Identifying_Dependencies_and_Issues_c7c80f
state "Allocating Resources" as Allocating_Resources_5eced7
state "Optimizing Resource Utilization" as Optimizing_Resource_Utilization_ad1c6c
state "Project Progress Clear" as Project_Progress_Clear_ad63a7
[*] --> Tracking_Tasks_and_Milestones_a377e3
Tracking_Tasks_and_Milestones_a377e3 --> Identifying_Dependencies_and_Issues_c7c80f : Identify Issues
Identifying_Dependencies_and_Issues_c7c80f --> Allocating_Resources_5eced7 : Allocate Resources
Allocating_Resources_5eced7 --> Optimizing_Resource_Utilization_ad1c6c : Optimize Resources
Optimizing_Resource_Utilization_ad1c6c --> Project_Progress_Clear_ad63a7 : Progress Clear
Project_Progress_Clear_ad63a7 --> [*] : Complete
@enduml
