@startuml
state "Adding Custom Field" as Adding_Custom_Field_c5f25d
state "Editing Custom Field" as Editing_Custom_Field_611f5d
state "Deleting Custom Field" as Deleting_Custom_Field_9d0711
state "Associating with Record" as Associating_with_Record_6d2a5e
state "Viewing Custom Fields" as Viewing_Custom_Fields_456e50
[*] --> Adding_Custom_Field_c5f25d
Adding_Custom_Field_c5f25d --> [*]

[*] --> Editing_Custom_Field_611f5d
Editing_Custom_Field_611f5d --> [*]

[*] --> Deleting_Custom_Field_9d0711
Deleting_Custom_Field_9d0711 --> [*]

[*] --> Associating_with_Record_6d2a5e
Associating_with_Record_6d2a5e --> [*]

[*] --> Viewing_Custom_Fields_456e50
Viewing_Custom_Fields_456e50 --> [*]
@enduml
