@startuml
state "Ready to Add Tags" as Ready_to_Add_Tags_b12f00
state "Adding Tags" as Adding_Tags_055c43
state "Viewing Tags" as Viewing_Tags_80295c
[*] --> Ready_to_Add_Tags_b12f00
Ready_to_Add_Tags_b12f00 --> Adding_Tags_055c43 : When adding tags starts
Adding_Tags_055c43 --> Viewing_Tags_80295c : After tags are added
Viewing_Tags_80295c --> Adding_Tags_055c43 : If more tags are needed
Viewing_Tags_80295c --> [*] : When done
@enduml
