@startuml
[*] --> Create Task
Create Task --> [*]
Create Task --> Edit Task
Create Task --> Assign Task
Edit Task --> [*]
Edit Task --> Assign Task
Edit Task --> Track Progress
Assign Task --> [*]
Assign Task --> Track Progress
Track Progress --> [*]
[*] --> Edit Task
[*] --> Assign Task
[*] --> Track Progress
@enduml
