@startuml
state "Select Predefined Menu" as Select_Predefined_Menu_4c6654
state "Create Custom Menu" as Create_Custom_Menu_0d8adb
state "Arrange Menu" as Arrange_Menu_162828
state "Add/Remove Items" as Add_Remove_Items_3c6e18
state "Save Configuration" as Save_Configuration_a92d90
[*] --> Select_Predefined_Menu_4c6654
[*] --> Create_Custom_Menu_0d8adb

Select_Predefined_Menu_4c6654 --> Arrange_Menu_162828
Create_Custom_Menu_0d8adb --> Arrange_Menu_162828

Arrange_Menu_162828 --> Add_Remove_Items_3c6e18
Add_Remove_Items_3c6e18 --> Save_Configuration_a92d90

Save_Configuration_a92d90 --> [*]
@enduml
