@startuml
state "Monitoring Inventory Levels" as Monitoring_Inventory_Levels_043276
state "Inventory Below Threshold" as Inventory_Below_Threshold_c3621e
state "Reordering Inventory" as Reordering_Inventory_ff2849
state "Generating Inventory Report" as Generating_Inventory_Report_c3c5d7
[*] --> Monitoring_Inventory_Levels_043276
Monitoring_Inventory_Levels_043276 --> [*]

Monitoring_Inventory_Levels_043276 --> Inventory_Below_Threshold_c3621e : Inventory level < threshold
Inventory_Below_Threshold_c3621e --> Reordering_Inventory_ff2849 : Reorder inventory
Reordering_Inventory_ff2849 --> Monitoring_Inventory_Levels_043276 : Update inventory levels

Monitoring_Inventory_Levels_043276 --> Generating_Inventory_Report_c3c5d7 : Generate report
Generating_Inventory_Report_c3c5d7 --> Monitoring_Inventory_Levels_043276 : Return to monitoring

Monitoring_Inventory_Levels_043276 --> [*] : System shutdown
@enduml
