@startuml
state "Task Created" as Task_Created_7639ff
state "Task Assigned" as Task_Assigned_e55fb7
state "Task In Progress" as Task_In_Progress_953c00
state "Task Completed" as Task_Completed_3ce609
[*] --> Task_Created_7639ff
Task_Created_7639ff --> Task_Assigned_e55fb7
Task_Assigned_e55fb7 --> Task_In_Progress_953c00
Task_In_Progress_953c00 --> Task_Completed_3ce609
Task_In_Progress_953c00 --> Task_Assigned_e55fb7
Task_Completed_3ce609 --> [*]
@enduml
