@startuml
[*] --> "User Watches/Listsens to Media"
[*] --> "User Sets Preferences"

"User Watches/Listsens to Media" --> "System Analyzes Behavior"
"User Sets Preferences" --> "System Analyzes Behavior"

"System Analyzes Behavior" --> "System Provides Recommendations"

"System Provides Recommendations" --> [*]
@enduml
