@startuml
state "Dashboard Loaded" as Dashboard_Loaded_04943f
state "Viewing Projects" as Viewing_Projects_51383b
state "Viewing Tasks" as Viewing_Tasks_d2d1ba
state "Viewing Team Members" as Viewing_Team_Members_b1124e
state "Viewing Calendar" as Viewing_Calendar_8ef9fd
state "Viewing Reporting" as Viewing_Reporting_b7a2c2
state "Viewing Performance Tracking" as Viewing_Performance_Tracking_0f36ed
[*] --> Dashboard_Loaded_04943f

Dashboard_Loaded_04943f --> Viewing_Projects_51383b
Dashboard_Loaded_04943f --> Viewing_Tasks_d2d1ba
Dashboard_Loaded_04943f --> Viewing_Team_Members_b1124e
Dashboard_Loaded_04943f --> Viewing_Calendar_8ef9fd
Dashboard_Loaded_04943f --> Viewing_Reporting_b7a2c2
Dashboard_Loaded_04943f --> Viewing_Performance_Tracking_0f36ed
Dashboard_Loaded_04943f --> [*]

Viewing_Projects_51383b --> Dashboard_Loaded_04943f
Viewing_Projects_51383b --> [*]

Viewing_Tasks_d2d1ba --> Dashboard_Loaded_04943f
Viewing_Tasks_d2d1ba --> [*]

Viewing_Team_Members_b1124e --> Dashboard_Loaded_04943f
Viewing_Team_Members_b1124e --> [*]

Viewing_Calendar_8ef9fd --> Dashboard_Loaded_04943f
Viewing_Calendar_8ef9fd --> [*]

Viewing_Reporting_b7a2c2 --> Dashboard_Loaded_04943f
Viewing_Reporting_b7a2c2 --> [*]

Viewing_Performance_Tracking_0f36ed --> Dashboard_Loaded_04943f
Viewing_Performance_Tracking_0f36ed --> [*]

@enduml
