@startuml
state "System Ready" as System_Ready_2c12dc
state "Order Summary Requested" as Order_Summary_Requested_bccb5e
state "Retrieving Order Data" as Retrieving_Order_Data_6cf521
state "Order Data Retrieved" as Order_Data_Retrieved_2412d9
state "Displaying Order Summary" as Displaying_Order_Summary_e193e2
state "Customizing View" as Customizing_View_5ab953
[*] --> System_Ready_2c12dc
System_Ready_2c12dc --> Order_Summary_Requested_bccb5e : User requests order summary
Order_Summary_Requested_bccb5e --> Retrieving_Order_Data_6cf521 : System starts retrieving data
Retrieving_Order_Data_6cf521 --> Order_Data_Retrieved_2412d9 : Data retrieval completed
Order_Data_Retrieved_2412d9 --> Displaying_Order_Summary_e193e2 : Display order summary
Displaying_Order_Summary_e193e2 --> Customizing_View_5ab953 : User customizes view
Customizing_View_5ab953 --> [*] : User exits
@enduml
