@startuml
state "Create Task" as Create_Task_00c785
state "View Tasks" as View_Tasks_d86289
state "Edit Task" as Edit_Task_9d0e05
state "View Workflow" as View_Workflow_bcc5b1
[*] --> Create_Task_00c785
Create_Task_00c785 --> View_Tasks_d86289
View_Tasks_d86289 --> Edit_Task_9d0e05
View_Tasks_d86289 --> View_Workflow_bcc5b1
Edit_Task_9d0e05 --> View_Tasks_d86289
Edit_Task_9d0e05 --> View_Workflow_bcc5b1
View_Workflow_bcc5b1 --> [*]
@enduml
