@startuml
state "User Input Data" as User_Input_Data_f5a027
state "Validate Input Data" as Validate_Input_Data_bf5431
state "Process Data" as Process_Data_f64cec
state "Display Validation Errors" as Display_Validation_Errors_4e2171
[*] --> User_Input_Data_f5a027
User_Input_Data_f5a027 --> Validate_Input_Data_bf5431
Validate_Input_Data_bf5431 --> Process_Data_f64cec : Valid
Validate_Input_Data_bf5431 --> Display_Validation_Errors_4e2171 : Invalid
Process_Data_f64cec --> [*]
Display_Validation_Errors_4e2171 --> User_Input_Data_f5a027 : Correct Errors
Display_Validation_Errors_4e2171 --> [*] : Abandon
@enduml
