@startuml
state "Add New Expense" as Add_New_Expense_0721cf
state "Categorize Expense" as Categorize_Expense_a4f10a
state "Awaiting Team Approval" as Awaiting_Team_Approval_e1fc0f
state "Expense Approved" as Expense_Approved_170337
state "Expense Rejected" as Expense_Rejected_cc22e6
state "Record Expense" as Record_Expense_bc9f15
state "Edit Expense" as Edit_Expense_2e4698
state "Request Reimbursement" as Request_Reimbursement_33447c
[*] --> Add_New_Expense_0721cf
Add_New_Expense_0721cf --> Categorize_Expense_a4f10a
Categorize_Expense_a4f10a --> Awaiting_Team_Approval_e1fc0f
Awaiting_Team_Approval_e1fc0f --> Expense_Approved_170337
Awaiting_Team_Approval_e1fc0f --> Expense_Rejected_cc22e6
Expense_Approved_170337 --> Record_Expense_bc9f15
Expense_Rejected_cc22e6 --> Edit_Expense_2e4698
Record_Expense_bc9f15 --> [*]
Edit_Expense_2e4698 --> [*]
Record_Expense_bc9f15 --> Request_Reimbursement_33447c
Request_Reimbursement_33447c --> [*]
@enduml
