@startuml
state "Sharing Content" as Sharing_Content_f63f04
state "Public Sharing" as Public_Sharing_89a789
state "Private Sharing" as Private_Sharing_de0b39
state "Custom Sharing" as Custom_Sharing_e0dea8
state "Content Displayed" as Content_Displayed_193389
state "Removing Content" as Removing_Content_a5ee94
state "Reporting Content" as Reporting_Content_3b1260
state "Viewing Content" as Viewing_Content_d1c62d
[*] --> Sharing_Content_f63f04

Sharing_Content_f63f04 --> Public_Sharing_89a789
Sharing_Content_f63f04 --> Private_Sharing_de0b39
Sharing_Content_f63f04 --> Custom_Sharing_e0dea8

Public_Sharing_89a789 --> Content_Displayed_193389
Private_Sharing_de0b39 --> Content_Displayed_193389
Custom_Sharing_e0dea8 --> Content_Displayed_193389

Content_Displayed_193389 --> Removing_Content_a5ee94
Content_Displayed_193389 --> Reporting_Content_3b1260
Content_Displayed_193389 --> Sharing_Content_f63f04
Content_Displayed_193389 --> Viewing_Content_d1c62d

Removing_Content_a5ee94 --> [*]
Reporting_Content_3b1260 --> [*]
Viewing_Content_d1c62d --> Content_Displayed_193389
@enduml
