@startuml
state "Tasks Created" as Tasks_Created_87e85d
state "Tasks Reordered" as Tasks_Reordered_bac03b
state "Tasks Executed" as Tasks_Executed_db5808
[*] --> Tasks_Created_87e85d
Tasks_Created_87e85d --> Tasks_Reordered_bac03b
Tasks_Reordered_bac03b --> Tasks_Executed_db5808
Tasks_Executed_db5808 --> [*]
@enduml
